<svg xmlns="http://www.w3.org/2000/svg" width="269.676" height="37.22" viewBox="0 0 269.676 37.22">
  <g id="Component_50_1" data-name="Component 50 – 1" transform="translate(0 0.001)">
    <g id="Group_3347" data-name="Group 3347" transform="translate(-163.566 -341.539)">
      <path id="Path_6359" data-name="Path 6359" d="M163.566,362.862v-10.4h3V352.1a10.859,10.859,0,0,1,2.649-7.69,9.241,9.241,0,0,1,7.12-2.858,11.559,11.559,0,0,1,2.332.22,9.514,9.514,0,0,1,2.063.684V349.9c-.31-.048-.59-.085-.842-.11s-.492-.037-.72-.037a3.466,3.466,0,0,0-2.112.574,1.855,1.855,0,0,0-.769,1.575q0,.221.012.342a1.464,1.464,0,0,0,.037.22h3.931v10.4h-3.932V377.9H166.13v-15.04Zm29.007,2.486a3.455,3.455,0,0,0,3.465,3.447,3.4,3.4,0,0,0,2.454-1.013,3.277,3.277,0,0,0,1.039-2.434,3.545,3.545,0,0,0-3.492-3.516,3.325,3.325,0,0,0-2.455,1.03A3.409,3.409,0,0,0,192.573,365.348Zm-9.937,0a13.1,13.1,0,0,1,.574-3.857,13.536,13.536,0,0,1,1.674-3.536,13.366,13.366,0,0,1,4.834-4.468,13.237,13.237,0,0,1,11.423-.549,13.694,13.694,0,0,1,4.395,2.966,13.5,13.5,0,0,1,2.93,4.346,13.272,13.272,0,0,1,.012,10.2,13.731,13.731,0,0,1-7.312,7.276,13.216,13.216,0,0,1-5.126,1.03,13.05,13.05,0,0,1-5.1-1.013,13.872,13.872,0,0,1-7.288-7.288,13.05,13.05,0,0,1-1.015-5.107Zm39.011,1.953v10.747h-9.741v-12.4a21.658,21.658,0,0,1,.781-6.555,10.324,10.324,0,0,1,2.661-4.187,10.218,10.218,0,0,1,3.308-2.209,9.751,9.751,0,0,1,3.8-.793c.618,0,5.979.038,6,.073,0,0-3.8,10.278-3.95,10.278a2.4,2.4,0,0,0-2.221,1.022,8.554,8.554,0,0,0-.636,4.029Zm5.617,10.747,8.275-15.689-11.035-.111,3.76-10.278,24-.073-9.644,16.651h9.644v9.5Zm53.564,0h-9.521V367.843q0-3.612-.879-5.054a3.138,3.138,0,0,0-2.9-1.44,3.7,3.7,0,1,0,0,7.4,3.683,3.683,0,0,0,.854-.11,8.81,8.81,0,0,0,1.05-.33v9.887l-.171.024q-1.318.074-1.88.073a13.068,13.068,0,0,1-13.159-13.233,13.162,13.162,0,0,1,.977-5.029,12.534,12.534,0,0,1,2.832-4.224,12.959,12.959,0,0,1,4.3-2.9,13.683,13.683,0,0,1,12.2.965,12.285,12.285,0,0,1,4.736,5.432,17.882,17.882,0,0,1,1.184,3.772,25.892,25.892,0,0,1,.378,4.822v10.157Zm34.584,0h-9.5V342.4h9.5V360.64l4.3-8.032h9.863l-4.663,8.887,6.442,16.553H321.1l-5.688-15.8Zm25.83-12.7a3.459,3.459,0,0,0,3.467,3.442,3.393,3.393,0,0,0,2.453-1.013,3.27,3.27,0,0,0,1.038-2.429,3.545,3.545,0,0,0-3.491-3.516,3.325,3.325,0,0,0-2.454,1.025A3.409,3.409,0,0,0,341.242,365.348Zm-9.937,0a13.113,13.113,0,0,1,.579-3.853,13.555,13.555,0,0,1,1.672-3.54,13.366,13.366,0,0,1,4.834-4.468,13.237,13.237,0,0,1,11.423-.549,13.694,13.694,0,0,1,4.4,2.966,13.5,13.5,0,0,1,2.93,4.346,13.278,13.278,0,0,1,.011,10.2,13.734,13.734,0,0,1-7.311,7.276,13.212,13.212,0,0,1-5.129,1.03,13.058,13.058,0,0,1-5.1-1.013,13.874,13.874,0,0,1-7.287-7.288A13.047,13.047,0,0,1,331.3,365.348ZM361.017,342.4h9.5v20.049q0,3.711.879,5.176a3.144,3.144,0,0,0,2.93,1.465,3.519,3.519,0,0,0,2.588-1.111,3.613,3.613,0,0,0,1.1-2.625,3.8,3.8,0,0,0-1.074-2.747,3.5,3.5,0,0,0-2.612-1.111,3.462,3.462,0,0,0-.83.11,10.3,10.3,0,0,0-1.27.452V351.948c.162-.016.5-.044,1.024-.085s.928-.061,1.221-.061a12.557,12.557,0,0,1,9.338,3.943,13.24,13.24,0,0,1,3.845,9.607,13.507,13.507,0,0,1-.977,5.09,13.132,13.132,0,0,1-2.81,4.306,13.489,13.489,0,0,1-4.334,2.97,13.347,13.347,0,0,1-12.251-1,12.308,12.308,0,0,1-4.724-5.53,17.558,17.558,0,0,1-1.172-3.845,27.835,27.835,0,0,1-.366-4.944v-20ZM411.8,375.6a14.874,14.874,0,0,1-4.15,2.368,13.3,13.3,0,0,1-4.59.781,13,13,0,0,1-3.857-.586,13.243,13.243,0,0,1-3.589-1.733,12.917,12.917,0,0,1-4.395-4.773,13.317,13.317,0,0,1,2.4-15.751,13.393,13.393,0,0,1,4.369-2.979,13.009,13.009,0,0,1,5.079-1.025,12.705,12.705,0,0,1,9.668,4.016,14.534,14.534,0,0,1,3.783,10.388v.537H402.448a1.048,1.048,0,0,1-.978-.562,3.786,3.786,0,0,1-.317-1.782,3.962,3.962,0,0,1,.317-1.807,1.042,1.042,0,0,1,.978-.586H406.7v-.1a2.489,2.489,0,0,0-.892-2.014,3.629,3.629,0,0,0-2.4-.745,3.688,3.688,0,0,0-3.077,1.538,6.6,6.6,0,0,0-1.171,4.1,7.151,7.151,0,0,0,1.074,4.2,3.449,3.449,0,0,0,2.979,1.514,3.684,3.684,0,0,0,1.807-.5,3.067,3.067,0,0,0,1.288-1.25Zm17.041-8.3v10.749H419.1v-12.4a21.646,21.646,0,0,1,.786-6.558,10.324,10.324,0,0,1,2.661-4.187,10.218,10.218,0,0,1,3.308-2.209,9.751,9.751,0,0,1,3.8-.793q.927,0,1.831.073t1.758.22v10.254l-.513-.073a9.585,9.585,0,0,0-1.025-.122,2.4,2.4,0,0,0-2.222,1.025,8.552,8.552,0,0,0-.642,4.028Z" fill="#ed3424"/>
      <path id="Path_6359-2" data-name="Path 6359" d="M294.6,363.757h7.443v2.491H294.6v7.7h-2.511v-7.7h-7.408v-2.493h7.407v-7.732H294.6Z" fill="#3c3c3c"/>
    </g>
  </g>
</svg>
